PathFileType	4	(X/Y/Z)	D:\TRACE\v60_Jaco2_6-2-23\BothDRS_Motion2_10-platform.trc
DataRate	CameraRate	NumFrames	NumMarkers	Units	OrigDataRate	OrigDataStartFrame	OrigNumFrames
100.00	100.00	      30	5	mm	100.00	5626	      7500
Frame#	Time	Left_Front			Right_Front			Left_Aft			Right_Aft			Post			
		X1	Y1	Z1	X2	Y2	Z2	X3	Y3	Z3	X4	Y4	Z4	X5	Y5	Z5	

5626	56.250	-775.14380	67.62661	-622.36218	794.94025	68.01308	-627.50085	-683.00293	-33.19471	508.28735	759.13074	-35.65826	517.76862	11.35145	1389.03503	-826.89417	
5627	56.260	-775.96722	66.86392	-622.37512	793.83795	67.26149	-628.01801	-683.92664	-32.73199	508.03400	758.13049	-35.21379	517.72784	10.27587	1387.99939	-828.12866	
5628	56.270	-777.31299	66.16723	-622.66632	793.03638	66.75800	-628.09491	-684.90735	-32.41074	507.91034	757.05688	-34.64067	518.19922	9.59686	1387.10474	-830.27710	
5629	56.280	-778.24213	65.25037	-622.94983	791.75543	65.80377	-628.49780	-686.21826	-31.24508	507.55093	756.28168	-34.16133	518.03088	8.85450	1386.14063	-833.22357	
5630	56.290	-778.93506	64.48152	-623.17834	790.96960	65.30253	-628.47711	-686.99371	-31.09222	507.85718	755.03748	-33.56813	516.86371	7.76902	1385.49902	-836.22241	
5631	56.300	-779.92749	63.90134	-623.13147	789.97833	64.59960	-628.82800	-688.08777	-30.71324	507.88931	754.04944	-33.08574	516.73065	6.98155	1384.61865	-839.97052	
5632	56.310	-781.18127	63.47002	-623.57080	789.00513	63.64370	-629.07831	-688.85309	-30.20103	507.76038	752.96240	-32.38505	516.65247	5.78852	1383.80090	-843.22125	
5633	56.320	-782.27234	62.64980	-623.96130	788.06335	63.17769	-629.23724	-689.92151	-29.50846	507.65771	751.82849	-31.82396	516.60486	5.16696	1383.01672	-845.91962	
5634	56.330	-782.94653	61.88051	-624.20996	786.84656	62.20959	-629.59070	-691.01532	-29.11670	507.45520	750.94043	-31.40510	516.39575	4.23051	1381.96887	-848.08075	
5635	56.340	-783.87378	60.56189	-624.11926	786.07806	61.51896	-629.69098	-691.95203	-28.56008	507.27573	750.15112	-30.81527	516.13708	2.94143	1380.62878	-850.27948	
5636	56.350	-785.31622	59.88948	-624.48895	784.86121	60.52267	-630.10059	-693.15704	-27.68959	507.23419	748.92737	-30.17949	515.89594	1.66751	1379.67627	-852.30261	
5637	56.360	-786.25134	59.30606	-625.05756	784.12823	59.78305	-630.14551	-693.98737	-27.27286	506.95154	747.59253	-29.35054	515.90326	0.84623	1378.54919	-853.47192	
5638	56.370	-787.16425	58.09948	-625.19171	782.72986	58.78006	-630.59253	-695.15076	-26.41514	506.73187	746.61578	-28.82057	515.64331	-0.27033	1377.22815	-854.86810	
5639	56.380	-788.20392	57.29463	-625.42401	781.73828	58.14344	-630.98730	-696.16687	-25.78932	506.64468	746.06976	-28.24090	516.18567	-1.45925	1375.70874	-855.90594	
5640	56.390	-789.66748	56.27486	-625.83942	780.65881	57.01497	-631.32031	-697.42419	-25.14554	506.36011	744.68079	-27.41266	515.30347	-2.57869	1374.10144	-856.42865	
5641	56.400	-790.57330	55.15331	-626.21051	779.57721	55.97936	-631.51947	-698.52130	-24.23586	506.10004	743.09235	-26.81296	515.97607	-4.00643	1372.83142	-857.31226	
5642	56.410	-791.45020	53.92813	-626.39240	778.25659	54.74903	-631.92542	-699.38580	-23.54176	506.06464	742.40637	-25.73122	515.61243	-4.66146	1371.16260	-858.72278	
5643	56.420	-792.42438	52.72836	-626.87573	777.36993	53.83944	-632.14685	-700.61926	-22.71179	505.66187	741.27246	-25.07706	515.12427	-5.97967	1369.51587	-860.29395	
5644	56.430	-793.97906	51.77293	-627.09851	776.22314	52.75428	-632.66144	-701.70471	-21.97244	505.54587	740.47949	-24.41715	514.87726	-7.25449	1368.09631	-863.12048	
5645	56.440	-794.86737	50.90813	-627.56598	775.09845	51.63291	-632.93555	-702.80682	-21.09746	505.17035	739.37573	-23.38474	514.55048	-8.21250	1366.82349	-866.91699	
5646	56.450	-795.90765	49.86358	-627.76569	774.10010	50.49649	-633.06464	-704.02557	-20.49416	505.16653	738.04327	-22.62103	514.24164	-9.28051	1365.32104	-870.95105	
5647	56.460	-797.10809	48.52140	-628.18640	772.84875	49.55710	-633.55054	-705.14600	-19.42346	504.68942	736.75928	-22.00960	513.94977	-10.29401	1364.06421	-875.17017	
5648	56.470	-798.45605	47.26482	-628.38885	771.95386	48.47821	-633.78345	-706.16522	-18.86989	504.71808	735.66461	-21.21619	513.45880	-11.50601	1362.42175	-878.96729	
5649	56.480	-799.35712	46.44275	-628.82166	770.77795	47.20297	-634.05688	-707.25299	-18.04084	504.33511	734.66821	-20.47638	513.39130	-12.04709	1361.12146	-882.72369	
5650	56.490	-800.52570	45.52195	-629.12457	769.40179	46.06609	-634.48987	-708.48090	-17.27641	504.33951	733.97723	-19.44987	513.02490	-13.06985	1359.72571	-885.61761	
5651	56.500	-801.44110	44.05198	-629.20959	768.51392	45.01394	-634.71832	-709.57758	-16.37401	504.11246	732.87720	-18.34412	513.55133	-14.66680	1358.11060	-888.88873	
5652	56.510	-802.82349	42.91606	-629.72546	767.23273	43.64123	-635.01288	-710.62445	-15.28493	503.91101	731.29706	-17.48835	513.30060	-15.97366	1356.39392	-891.56976	
5653	56.520	-804.06372	41.67635	-630.11554	766.13599	42.43099	-635.53595	-711.78497	-14.69448	503.62305	730.33997	-16.63390	512.81049	-16.92193	1354.57361	-893.98303	
5654	56.530	-805.17261	40.09100	-630.51215	764.91888	41.21656	-635.94031	-712.90570	-13.90295	503.35611	729.28015	-15.72022	512.47919	-17.70590	1352.62219	-895.91235	
5655	56.540	-806.23645	38.97338	-630.81012	763.81665	39.68381	-636.28778	-714.31165	-12.24051	502.85373	728.36023	-14.68817	512.39404	-19.04998	1350.61584	-897.73633	
